<svg height="62" viewBox="0 0 209 62" width="209" xmlns="http://www.w3.org/2000/svg" xmlns:xlink="http://www.w3.org/1999/xlink"><linearGradient id="a" x1="60.76926%" x2="27.066309%" y1="4.948125%" y2="71.907422%"><stop offset="0" stop-color="#00a0ff"/><stop offset=".01" stop-color="#00a1ff"/><stop offset=".26" stop-color="#00beff"/><stop offset=".51" stop-color="#00d2ff"/><stop offset=".76" stop-color="#00dfff"/><stop offset="1" stop-color="#00e3ff"/></linearGradient><linearGradient id="b" x1="107.684729%" x2="-130.640394%" y1="50%" y2="50%"><stop offset="0" stop-color="#ffe000"/><stop offset=".41" stop-color="#ffbd00"/><stop offset=".78" stop-color="#ffa500"/><stop offset="1" stop-color="#ff9c00"/></linearGradient><linearGradient id="c" x1="86.219293%" x2="-50.14979%" y1="30.442132%" y2="138.100903%"><stop offset="0" stop-color="#ff3a44"/><stop offset="1" stop-color="#c31162"/></linearGradient><linearGradient id="d" x1="-18.753745%" x2="42.121031%" y1="-13.351217%" y2="34.728481%"><stop offset="0" stop-color="#32a071"/><stop offset=".07" stop-color="#2da771"/><stop offset=".48" stop-color="#15cf74"/><stop offset=".8" stop-color="#06e775"/><stop offset="1" stop-color="#00f076"/></linearGradient><g fill="none" fill-rule="evenodd"><path d="m-431-1808h1440v3819h-1440z" fill="#eff2f4"/><path d="m-431-582h1440v821h-1440z" fill="#2a3038"/><g fill-rule="nonzero"><rect fill="#fff" height="62" rx="8" width="209"/><path d="m201.259259 1.24c3.591078 0 6.502222 2.91462628 6.502222 6.51v46.5c0 3.5953737-2.911144 6.51-6.502222 6.51h-193.51851826c-3.59107817 0-6.50222222-2.9146263-6.50222222-6.51v-46.5c0-3.59537372 2.91114405-6.51 6.50222222-6.51zm0-1.24h-193.51851826c-4.27509306 0-7.74074074 3.46979319-7.74074074 7.75v46.5c0 4.2802068 3.46564768 7.75 7.74074074 7.75h193.51851826c4.275093 0 7.740741-3.4697932 7.740741-7.75v-46.5c0-4.28020681-3.465648-7.75-7.740741-7.75z" fill="#a6a6a6"/><path d="m105.37052 33.2701749c-3.643257.0168695-6.5844202 2.9335624-6.5730368 6.5183161.0114497 3.5847537 2.9711328 6.4832527 6.6144258 6.4776641 3.643292-.0056048 6.593762-2.9131829 6.593803-6.4979542.025597-1.7363126-.666267-3.4084673-1.917128-4.6334692-1.25086-1.2250018-2.953544-1.8978945-4.718064-1.8645568zm0 10.44271c-1.642129.1129973-3.187576-.773168-3.897171-2.2346527-.709596-1.4614846-.439113-3.2012399.68208-4.3871599 1.121192-1.18592 2.865209-1.5769648 4.397907-.9861021 1.532699.5908627 2.542555 2.0435394 2.546566 3.6632307.050568 1.0131904-.316947 2.0035215-1.019147 2.74626-.702199.7427386-1.67954 1.1749033-2.710235 1.198424zm-14.4668946-10.44271c-3.6453163.0084395-6.5942815 2.9214313-6.588575 6.508195.0057231 3.5867638 2.9639563 6.4906435 6.6092816 6.487839 3.6453253-.0028085 6.5989363-2.9112398 6.5989464-6.498008.0255975-1.7363126-.6662671-3.4084673-1.9171274-4.6334692-1.2508603-1.2250018-2.9535443-1.8978945-4.7180647-1.8645568zm0 10.44271c-1.6429859.1193696-3.1929391-.762377-3.907535-2.2229416-.7145959-1.4605647-.4483478-3.2025867.6712292-4.3917531 1.1195769-1.1891665 2.8645447-1.5833715 4.3991797-.9938169 1.5346349.5895545 2.546496 2.0428394 2.550969 3.6638276.0505685 1.0131904-.3169467 2.0035215-1.0191464 2.74626-.7021996.7427386-1.6795399 1.1749033-2.7102356 1.198424zm-17.2328526-8.439789v2.7521051h6.7128876c-.1052565 1.2962473-.6528833 2.5193909-1.5539092 3.4707103-1.358081 1.3611066-3.2375026 2.094135-5.1745175 2.0182105-4.1193616 0-7.458764-3.2857585-7.458764-7.338947s3.3394024-7.338947 7.458764-7.338947c1.892344-.0303667 3.7196886.6789323 5.081283 1.972342l1.9734646-1.9417631c-1.8570464-1.8502431-4.3964466-2.8816771-7.0392085-2.8591314-3.762075-.1440589-7.3027615 1.7486139-9.2273394 4.9324712s-1.9245779 7.148594 0 10.3324513 5.4652644 5.0765301 9.2273394 4.9324712c2.6910055.1196467 5.3030891-.9117476 7.1635212-2.8285525 1.627993-1.7599382 2.497199-4.0734807 2.4240983-6.4521575.0050143-.5794891-.0470257-1.1580938-.1553909-1.7277105zm70.4076242 2.1405262c-.829664-2.401655-3.07996-4.0501003-5.65623-4.1434589-1.718058-.0032934-3.36088.693248-4.538379 1.9242432s-1.784639 2.8866365-1.677257 4.5737945c-.038163 1.7266343.638912 3.3943063 1.875649 4.6198275 1.236738 1.2255212 2.926798 1.903516 4.681848 1.8781985 2.207884.0117101 4.274249-1.068053 5.500838-2.8744209l-2.253168-1.5289473c-.684115 1.1221589-1.917748 1.8074711-3.24767 1.8041578-1.377399.0516557-2.646865-.7305313-3.201053-1.972342l8.841743-3.5930261zm-9.012673 2.1711051c-.06363-.9553409.266224-1.895673.9152-2.6090092s1.562446-1.1396306 2.534478-1.18278c1.024601-.0664304 1.990661.4750172 2.455177 1.3760525zm-7.179061 6.2992629h2.905811v-19.1118411h-2.905811zm-4.754962-11.1613152h-.108773c-.885787-.9744336-2.152076-1.5306598-3.480757-1.5289513-3.527145.1682977-6.299024 3.0311108-6.299024 6.5056747s2.771879 6.3373769 6.299024 6.5056707c1.332988.0220531 2.607485-.5377784 3.480757-1.5289473h.093234v.9326578c0 2.4921841-1.351901 3.8223683-3.527374 3.8223683-1.481958-.0341301-2.795905-.9463673-3.325365-2.3087104l-2.532872 1.0396841c.97536 2.3344135 3.293092 3.8527306 5.858237 3.8377689 3.403062 0 6.215637-1.9724532 6.215637-6.7733477v-11.5741309h-2.672724zm-3.325365 8.99021c-2.077751-.1801715-3.671303-1.8923857-3.671303-3.944684s1.593552-3.7645125 3.671303-3.944684c1.004011.0506961 1.944695.4980854 2.60878 1.2407354.664084.7426499.995315 1.7176505.918594 2.7039486.085674.9908334-.244496 1.9730012-.913745 2.7181437s-1.619267 1.1883378-2.629168 1.2265403zm37.884305-16.9407359h-6.945974v19.1118411h2.90581v-7.2472102h4.055703c2.257339.1595668 4.41617-.9349376 5.594275-2.8362385 1.178106-1.901301 1.178106-4.2908529 0-6.1921539-1.178105-1.901301-3.336936-2.9958053-5.594275-2.8362385zm0 9.1736837h-4.055703v-6.5133155h4.117859c1.84084 0 3.333136 1.4683234 3.333136 3.279592s-1.492296 3.2795919-3.333136 3.2795919zm17.916573-2.7521051c-2.161934-.1271489-4.194488 1.0199424-5.174518 2.9202893l2.579489 1.0549736c.519637-.9423389 1.555657-1.4940023 2.641646-1.4066315.745143-.0856293 1.494012.1268569 2.078397.5897306.584386.4628736.955298 1.1373299 1.029421 1.8718745v.1987632c-.933289-.4862066-1.974098-.7382902-3.030123-.7338947-2.781497 0-5.594073 1.5289473-5.594073 4.2963419.055456 1.1921336.598629 2.3115076 1.505943 3.1034531.907313.7919456 2.10161 1.1891163 3.311176 1.1011519 1.490555.1053186 2.920679-.5982569 3.729382-1.8347367h.093234v1.5289473h2.797037v-7.3542365c0-3.3483946-2.579489-5.2901576-5.889316-5.2901576zm-.357399 10.4732889c-.947885 0-2.268708-.4739737-2.268708-1.6206841 0-1.5289473 1.647144-2.0334999 3.107819-2.0334999.923087-.0224115 1.83537.1993554 2.641645.6421578-.200926 1.7115266-1.652546 3.0159105-3.403061 3.0578946zm16.518054-10.0146047-3.325366 8.2868943h-.093234l-3.449679-8.2868943h-3.107818l5.174518 11.5894204-2.952428 6.4368681h3.030123l7.956015-18.0262885zm-26.121213 12.2315783h2.90581v-19.1118411h-2.90581z" fill="#000"/><path d="m73.3791879 16.3935461c.0530346 1.1807155-.3654647 2.3322247-1.1578411 3.1858232-.8854401.9490618-2.120418 1.464564-3.3963338 1.4176913-1.9569981-.0158037-3.7141254-1.2405338-4.4589359-3.1079096-.7448104-1.8673759-.3321557-4.0134845 1.0471641-5.4460256.89622-.9440774 2.1313213-1.4630647 3.4117718-1.4336204.6526482-.0022438 1.2988443.1332762 1.8988593.3982279.5586267.2324911 1.0559265.5982283 1.4511609 1.0672507l-.8182077.8442431c-.6246988-.7667058-1.5624914-1.1856202-2.5318125-1.1309672-.9743629-.0049318-1.9086172.3999605-2.5873333 1.1213128-.6787161.7213524-1.0433039 1.6968941-1.009693 2.701675-.0206839 1.5183469.8459596 2.9004364 2.1967074 3.503224 1.3507479.6027877 2.9203211.3078897 3.978445-.747487.4750383-.5311776.7490197-1.2209646.7718941-1.9433521h-3.3500202v-1.1468963h4.4924234c.0411776.2365699.0618432.4764552.0617515.7168102zm7.0705495-3.982279h-4.1682279v3.026532h3.7977188v1.1468964h-3.7977188v3.026532h4.1682279v1.1787546h-5.4032584v-9.5574695h5.4032584zm5.063625 8.378715h-1.1887168v-8.378715h-2.593564v-1.1787545h6.4375964v1.1787545h-2.6553156zm7.1940526 0v-9.5574695h1.1887169v9.5574695zm6.4684722 0h-1.1887169v-8.378715h-2.593564v-1.1787545h6.3604067v1.1787545h-2.5781258zm14.6351108-1.2424711c-1.878805 1.927786-4.913861 1.927786-6.792667 0-1.821255-1.989174-1.821255-5.0992825 0-7.0884565.898482-.9338497 2.121035-1.4590545 3.396334-1.4590545s2.497851.5252048 3.396333 1.4590545c1.829027 1.9859782 1.829027 5.1024783 0 7.0884565zm-5.912708-.7964558c1.391453 1.4297418 3.641296 1.4297418 5.032749 0 1.366559-1.5544091 1.366559-3.9252067 0-5.4796158-1.391453-1.4297418-3.641296-1.4297418-5.032749 0-1.366559 1.5544091-1.366559 3.9252067 0 5.4796158zm8.953971 2.0389269v-9.5574695h1.451161l4.507861 7.4388971v-7.4388971h1.188717v9.5574695h-1.23503l-4.708554-7.7893377v7.7893377z" fill="#000" stroke="#000" stroke-width=".2"/><g transform="translate(14 11)"><path d="m1.26968421.85153846c-.50777249.61674776-.76406379 1.40629199-.71663158 2.20769231v34.88153843c-.04743221.8014003.20885909 1.5909446.71663158 2.2076923l.10905263.1103847 19.30231576-19.5223077v-.4573077l-19.30231576-19.53807695z" fill="url(#a)"/><path d="m27.0684211 27.2492308-6.3873685-6.5126923v-.4573077l6.3873685-6.5284616.1402105.0788462 7.6492631 4.3996154c2.1810527 1.2457692 2.1810527 3.2957692 0 4.5573077l-7.6181052 4.3838461z" fill="url(#b)"/><path d="m27.2553684 27.1546154-6.5743158-6.6546154-19.41136839 19.6484615c.91716025.8160931 2.27831038.8558366 3.24042105.0946154l22.76084214-13.0884615" fill="url(#c)"/><path d="m27.2553684 13.8453846-22.76084208-13.08846152c-.96211067-.76122116-2.3232608-.72147763-3.24042106.09461538l19.42694734 19.64846154z" fill="url(#d)"/><path d="m27.0684211 27.0126923-22.57389478 13.0096154c-.92377155.6991075-2.19201793.6991075-3.11578948 0l-.10905263.1103846.10905263.1103846c.92203344.7043788 2.19375604.7043788 3.11578948 0l22.76084208-13.0884615z" fill="#000" opacity=".2"/><path d="m1.26968421 39.9276923c-.50777249-.6167478-.76406379-1.406292-.71663158-2.2076923v.2365385c-.04743221.8014003.20885909 1.5909445.71663158 2.2076923l.10905263-.1103846zm33.58821049-17.3776923-7.7894736 4.4626923.1402105.1419231 7.6492631-4.3838462c.8834356-.4200715 1.477614-1.286139 1.5578948-2.2707692-.1775541.890706-.7529213 1.6478192-1.5578948 2.05z" fill="#000" opacity=".12"/><path d="m4.49452632.97769231 30.36336838 17.47230769c.8049735.4021808 1.3803407 1.159294 1.5578948 2.05-.0802808-.9846302-.6744592-1.8506977-1.5578948-2.2707692l-30.36336838-17.47230772c-2.18105264-1.24576923-3.95705264-.205-3.95705264 2.31807692v.23653846c.04673685-2.53884615 1.79157895-3.57961538 3.95705264-2.33384615z" fill="#fff" opacity=".25"/></g></g></g></svg>