<svg height="62" viewBox="0 0 192 62" width="192" xmlns="http://www.w3.org/2000/svg"><g fill="none"><path d="m12.3288107 61.9967583c-.496095 0-.9802061-.0063212-1.4724096-.0173428-1.01963937-.0132248-2.03689561-.1015855-3.04342589-.2643575-.93853869-.1609028-1.8477304-.4602113-2.69758576-.8880529-.84206264-.4242966-1.61009146-.9806463-2.27466429-1.647736-.67419238-.6592318-1.23548833-1.4238282-1.6616447-2.2634895-.43085226-.8451185-.72902766-1.7509837-.88413938-2.68604-.16750719-1.0047286-.25813552-2.0206676-.27110351-3.0390568-.0103231-.3418331-.02383757-1.4799801-.02383757-1.4799801v-37.4420872s.01439372-1.1206583.02391898-1.4498975c.01241675-1.01677596.10251808-2.03113847.26952411-3.03430777.15539804-.93761778.45380427-1.84609512.88488837-2.69398202.42459015-.83908139.9827699-1.60424871 1.65290101-2.26583969.66937789-.66787703 1.43986349-1.22709152 2.28335914-1.65725034.84790214-.42646703 1.7553756-.72366418 2.69201715-.88163443 1.00983588-.16440707 2.03062365-.25329349 3.05379784-.26591341l1.4692019-.01979034h167.3328205l1.486755.02058454c1.013867.01199285 2.025382.10008628 3.025938.2635308.946124.15995175 1.863055.45922261 2.720642.88797187 1.689827.86689467 3.064807 2.23840382 3.932222 3.92229583.424204.84203359.718007 1.74310046.871439 2.67261947.168995 1.01140033.263576 2.0337341.28299 3.05884709.004722.4590192.004722.9520757.004722 1.4427659.012863.6078114.012863 1.1863343.012863 1.7696063v33.9218221c0 .5888477 0 1.163432-.012863 1.7427167 0 .527094 0 1.0099394-.00635 1.506886-.018994 1.0068203-.111998 2.0109061-.278268 3.0042089-.151933.9418015-.448485 1.8547374-.879255 2.7067866-.429169.8305476-.987241 1.5885209-1.65365 2.2459845-.66517.6706746-1.434555 1.2302794-2.278572 1.6572989-.855212.4311307-1.770793.731546-2.71592.8911325-1.006454.1636406-2.023808.252007-3.043523.2643575-.476915.0110216-.976299.0173428-1.461191.0173428l-1.765023.0032417z" fill="#fff"/><g fill="#000"><path d="m66.79975 44.4277459h-7.6935031l-1.847585 5.5868634h-3.2586619l7.2871618-20.6699547h3.3856354l7.2871618 20.6699547h-3.3142169zm-6.8966841-2.5780517h6.0983698l-3.0063078-9.0670659h-.0841939zm27.7946855.6307016c0 4.6830814-2.4475723 7.6918764-6.1411494 7.6918764-1.9091778.1022756-3.7075188-.9217909-4.6300637-2.6365927h-.0698907v7.4643205h-3.0205785v-20.0554489h2.9237555v2.5065275h.055555c.9635299-1.7040513 2.7638102-2.7276769 4.6856187-2.664207 3.7348939.0000166 6.1967531 3.0234428 6.1967531 7.6935242zm-3.1047074 0c0-3.051057-1.5396596-5.0569482-3.8888159-5.0569482-2.3078884 0-3.8602421 2.0481366-3.8602421 5.0569482 0 3.0364427 1.5523537 5.0699481 3.8602421 5.0699481 2.3491726 0 3.8888159-1.9912434 3.8888159-5.0699481zm19.302007 0c0 4.6830814-2.448369 7.6918764-6.1419461 7.6918764-1.9091777.1022756-3.7075188-.9217909-4.6300637-2.6365927h-.0698907v7.4643205h-3.0205785v-20.0554489h2.9237555v2.5065275h.055555c.9635299-1.7040513 2.7638102-2.7276769 4.6856187-2.664207 3.7349098.0000166 6.1975498 3.0234428 6.1975498 7.6935242zm-3.105488 0c0-3.051057-1.5396594-5.0569482-3.8888158-5.0569482-2.3078884 0-3.860242 2.0481366-3.860242 5.0569482 0 3.0364427 1.5523536 5.0699481 3.860242 5.0699481 2.3491564 0 3.8888158-1.9912434 3.8888158-5.0699481zm13.808452 1.7750395c.223812 2.0497677 2.168237 3.3956118 4.825302 3.3956118 2.545988 0 4.377694-1.3459107 4.377694-3.1941222 0-1.6043767-1.104745-2.5650185-3.720559-3.2233678l-2.615813-.6453327c-3.706272-.9167819-5.426883-2.6918379-5.426883-5.5722322 0-3.5663579 3.034865-6.0159922 7.342717-6.0159922 4.266583 0 7.190338 2.4496343 7.288754 6.0159922h-3.049185c-.182528-2.0627676-1.847585-3.3078919-4.28087-3.3078919s-4.098325 1.259772-4.098325 3.0933358c0 1.4613282 1.063476 2.3212169 3.665003 2.9794829l2.223759.5591774c4.141187 1.0029372 5.860205 2.7065024 5.860205 5.7298952 0 3.8670692-3.006291 6.2890726-7.790375 6.2890726-4.476109 0-7.498264-2.3651102-7.693503-6.1037787zm18.913918-12.877242v3.5663578h2.798359v2.4496344h-2.798359v8.3079469c0 1.2906487.560312 1.8920881 1.790437 1.8920881.332211-.0059324.663884-.0298237.993635-.0715741v2.4350032c-.553066.1058292-1.115211.1537588-1.677751.1430485-2.979294 0-4.141186-1.1459857-4.141186-4.0686421v-8.6378705h-2.139631v-2.4496344h2.139598v-3.5663578zm4.417401 11.1022025c0-4.741589 2.726924-7.7211385 6.979236-7.7211385 4.266584 0 6.980813 2.9794829 6.980813 7.7211385 0 4.7546056-2.699942 7.7211386-6.980813 7.7211386-4.27931 0-6.979236-2.9665496-6.979236-7.7211386zm10.882323 0c0-3.2526299-1.455531-5.172349-3.903103-5.172349s-3.903103 1.9343502-3.903103 5.172349c0 3.2656298 1.455531 5.1707345 3.903103 5.1707345s3.903103-1.9051047 3.903103-5.1707345zm5.568111-7.5358447h2.88091v2.5650186h.069891c.401751-1.6512188 1.879138-2.7876449 3.539606-2.7227148.348095-.0012446.69523.0374695 1.034903.1154175v2.8933942c-.439449-.1375167-.897869-.2006552-1.35718-.1869251-.888021-.0368932-1.747428.3255372-2.352567.9921278-.605139.6665907-.895552 1.5707448-.794985 2.4750582v8.9386485h-3.020578zm21.451974 10.643795c-.406341 2.7357146-3.007884 4.6131717-6.336388 4.6131717-4.28087 0-6.937952-2.9372875-6.937952-7.6496144 0-4.7269579 2.671369-7.7926628 6.810978-7.7926628 4.071345 0 6.63162 2.864132 6.63162 7.4334271v1.0598304h-10.393446v.1869251c-.097038 1.1219361.281256 2.2324973 1.038657 3.0491927s1.820909 1.2608096 2.920001 1.2193743c1.465823.1406509 2.847807-.7213384 3.398346-2.1196608zm-10.210929-4.4977542h7.357016c.054816-1.0081513-.303527-1.9940013-.988694-2.7200489-.685166-.7260477-1.635034-1.1264629-2.620755-1.1047749-.993517-.0060718-1.948242.3945312-2.651969 1.1127674-.703726.7182361-1.098144 1.6945928-1.095598 2.7120564z"/><path d="m58.5222922 14.4623798c1.2893513-.0890408 2.5522424.3830321 3.441071 1.2862838.8888286.9032518 1.3099073 2.1424747 1.1473369 3.3765809 0 2.9979985-1.6837389 4.721307-4.5884079 4.721307h-3.5222922v-9.3841717zm-2.0077329 8.0570472h1.8385533c.921437.0530039 1.8186421-.296365 2.4424951-.9510999s.9079366-1.5451309.7733715-2.4239583c.1247749-.8751804-.1633999-1.7582289-.785706-2.4076244-.6223062-.6493955-1.5136203-.9971798-2.4301606-.9482309h-1.8385533zm8.3070085-2.2170012c-.1261866-1.2693662.5063027-2.4978388 1.6322038-3.1701998 1.125901-.6723609 2.5505487-.6723609 3.6764497 0 1.1259011.672361 1.7583904 1.9008336 1.6322038 3.1701998.1285875 1.2707303-.5033246 2.5015856-1.6302239 3.175394s-2.5535102.6738084-3.6804095 0-1.7588114-1.9046637-1.6302239-3.175394zm5.4470368 0c0-1.5350853-.7166108-2.4327942-1.9742139-2.4327942-1.2624079 0-1.9725634.8977089-1.9725634 2.4328099 0 1.547384.7102045 2.4381729 1.9725634 2.4381729 1.2576358 0 1.9742139-.8969539 1.9742139-2.4381886zm10.7201056 3.5439841h-1.506584l-1.5209494-5.215786h-.1149055l-1.5145756 5.215786h-1.4922352l-2.0284717-7.0818503h1.4730815l1.3182672 5.4038677h.1085319l1.512974-5.4038677h1.3932802l1.5129741 5.4038677h.1149055l1.3118772-5.4038677h1.4523263zm3.7265759-7.0818503h1.3980686v1.1250141h.1085318c.3774098-.8283079 1.2593074-1.334992 2.1960497-1.261715.7253163-.0524789 1.436075.2152896 1.9315935.727701.4955186.5124115.7220241 1.2138598.6155627 1.9062913v4.5844803h-1.4523263v-4.233512c0-1.1380677-.5138961-1.7040426-1.587987-1.7040426-.491971-.022051-.9694158.1637557-1.307163.5087071-.3377473.3449514-.5021123.8146444-.4500037 1.28594v4.1429861h-1.4523263zm8.5639647-2.7645596h1.4523264v9.8463942h-1.4523264zm3.4712213 6.3024258c-.1260898-1.2694493.5064993-2.497953 1.6324839-3.1703243s2.550706-.6723713 3.67669 0c1.125985.6723713 1.758574 1.900875 1.632484 3.1703243.128424 1.2707758-.503604 2.5015963-1.630559 3.175375s-2.5535848.6737787-3.6805401 0c-1.1269552-.6737787-1.758983-1.9045992-1.6305588-3.175375zm5.4470369 0c0-1.5350853-.716611-2.4327942-1.974214-2.4327942-1.262408 0-1.9725635.8977089-1.9725635 2.4328099 0 1.547384.7102045 2.4381729 1.9725635 2.4381729 1.257619 0 1.974214-.8969539 1.974214-2.4381886zm3.023562 1.5412347c0-1.2747686.986314-2.0096695 2.737075-2.1141139l1.993367-.1105779v-.6112693c0-.7479702-.513896-1.1703243-1.506584-1.1703243-.810745 0-1.372525.2864396-1.533729.7871309h-1.406044c.148424-1.2164049 1.337421-1.9966158 3.006795-1.9966158 1.844943 0 2.885515.8838689 2.885515 2.3798092v4.8387263h-1.398069v-.9952333h-.114905c-.474839.7267956-1.319258 1.1515668-2.210415 1.1119134-.624722.0625342-1.247779-.1321704-1.71514-.5359793s-.735405-.9790329-.737866-1.583466zm4.730442-.6051357v-.5920664l-1.797059.110578c-1.013443.0652679-1.473081.3970176-1.473081 1.0213404 0 .6373765.574543 1.0082869 1.364615 1.0082869.467705.0455615.9346-.0934903 1.293802-.3853235.359203-.2918332.579956-.7114587.611723-1.1628154zm3.354714-.936099c0-2.2377454 1.195387-3.6553485 3.054679-3.6553485.93885-.0416297 1.81817.4424895 2.256697 1.2424493h.108532v-3.8895266h1.452327v9.8463942h-1.391679v-1.1188805h-.114905c-.471676.7933226-1.36183 1.2692585-2.310956 1.2355921-1.872072.0000786-3.054695-1.4175559-3.054695-3.66068zm1.50026 0c0 1.5020739.735748 2.4059321 1.966239 2.4059321 1.224068 0 1.980587-.916896 1.980587-2.3997827 0-1.4759668-.764462-2.4059322-1.980587-2.4059322-1.222565 0-1.966288.9099919-1.966288 2.3997828zm11.380792 0c-.126187-1.2693662.506302-2.4978388 1.632203-3.1701998 1.125901-.6723609 2.550549-.6723609 3.67645 0 1.125901.672361 1.75839 1.9008336 1.632204 3.1701998.128587 1.2707303-.503325 2.5015856-1.630224 3.175394s-2.55351.6738084-3.68041 0c-1.126899-.6738084-1.758811-1.9046637-1.630223-3.175394zm5.44702 0c0-1.5350853-.716594-2.4327942-1.974198-2.4327942-1.262407 0-1.972563.8977089-1.972563 2.4328099 0 1.547384.710205 2.4381729 1.972563 2.4381729 1.25762 0 1.974198-.8969539 1.974198-2.4381886zm3.442507-3.5378662h1.398069v1.1250141h.108532c.377409-.8283079 1.259307-1.334992 2.196049-1.261715.725317-.0524789 1.436075.2152896 1.931594.727701.495518.5124115.722024 1.2138598.615563 1.9062913v4.5844803h-1.452327v-4.233512c0-1.1380677-.513896-1.7040426-1.587987-1.7040426-.491971-.022051-.969416.1637557-1.307163.5087071s-.502112.8146444-.450003 1.28594v4.1429861h-1.452327zm14.456275-1.7631613v1.7954178h1.594377v1.1772442h-1.594377v3.6415242c0 .7418208.317604 1.0666505 1.040572 1.0666505.18509-.00057.369994-.0113398.553805-.0322565v1.164175c-.260814.0449023-.525065.0687908-.790006.0714172-1.615116 0-2.258299-.546772-2.258299-1.9121451v-3.9994282h-1.168241v-1.1772442h1.168241v-1.7953549zm3.578151-1.0013983h1.439563v3.9026273h.114905c.395539-.8355572 1.292871-1.342887 2.243853-1.2686193.721197-.0377653 1.422334.2358982 1.912437.7464507s.718124 1.2048168.621955 1.893691v4.5722602h-1.453781v-4.2274727c0-1.1311635-.54748-1.7040427-1.573622-1.7040427-.505268-.0398784-1.003067.1368911-1.360313.4830509s-.537512.8264125-.492605 1.3123669v4.1360976h-1.452326zm14.800991 7.9342649c-.407248 1.3358365-1.750549 2.1989354-3.188737 2.0488302-.981275.0249279-1.924334-.36649-2.578962-1.0704012-.654629-.7039112-.954646-1.6491535-.82045-2.5849316-.130631-.9383786.168262-1.8851355.819245-2.5949936.650982-.7098581 1.589999-1.1129674 2.573777-1.1048943 2.047625 0 3.282904 1.3462488 3.282904 3.5700756v.4876849h-5.196471v.0783215c-.045985.525509.140516 1.0453051.513636 1.4315542s.898239.6031119 1.446213.5972552c.710535.0820877 1.402191-.2570878 1.750777-.8585481zm-5.108726-2.2822848h3.716999c.037021-.4806227-.138589-.9539414-.483553-1.3033149-.344964-.3493736-.827201-.54231-1.327872-.5312636-.507453-.0061353-.995976.1852055-1.35475.5306184s-.557389.8156205-.550792 1.3039601z"/><path d="m38.0567506 32.6765032c.0370131-2.8825056 1.5430404-5.545063 3.9904431-7.0548415-1.5509698-2.2226269-4.0556111-3.5812987-6.7583573-3.6661496-2.8435192-.2994996-5.6001651 1.7073275-7.0491999 1.7073275-1.4770426 0-3.7080029-1.67759-6.1103976-1.6280002-3.1609056.1024721-6.0362906 1.8620564-7.5741365 4.6349729-3.2748247 5.6893488-.8320954 14.0508125 2.3049695 18.6496918 1.5695502 2.2519331 3.4038892 4.7673867 5.8041181 4.6781904 2.3487563-.0977581 3.2259738-1.502841 6.0611069-1.502841 2.8088351 0 3.6318279 1.502841 6.0807613 1.4461272 2.5203373-.0410443 4.1082392-2.2619327 5.6227506-4.5351887 1.1277203-1.6045802 1.9954988-3.3779915 2.5711912-5.2545433-2.993389-1.2703825-4.9397658-4.2135216-4.9432494-7.4747455zm-4.6255387-13.7455123c1.3741966-1.6552946 2.0512141-3.7829021 1.8872771-5.9309909-2.0994476.2212587-4.0387495 1.228086-5.4314989 2.8198713-1.3752779 1.570512-2.0719899 3.6251632-1.9366818 5.7114068 2.1275888.0219754 4.1476882-.9364138 5.4809036-2.6002872z"/></g></g></svg>