<svg height="1024" viewBox="0 0 1024 1024" width="1024" xmlns="http://www.w3.org/2000/svg" xmlns:xlink="http://www.w3.org/1999/xlink"><defs><linearGradient id="a" x1="66.526693%" x2="27.66276%" y1="22.978516%" y2="100%"><stop offset="0" stop-color="#333"/><stop offset="1"/></linearGradient><linearGradient id="b" x1="50%" x2="50%" y1="0%" y2="100%"><stop offset="0" stop-color="#fff" stop-opacity=".5"/><stop offset="1" stop-opacity=".5"/></linearGradient><circle id="c" cx="511.208984" cy="511.208984" r="66.445313"/></defs><g fill="none" fill-rule="evenodd"><path d="m666.990933 0c102.801067 0 154.1888 0 209.527467 17.4933333 60.416 21.9904 107.997867 69.5722667 129.98827 129.9882667 17.49333 55.330133 17.49333 106.734933 17.49333 209.527467v309.981866c0 102.801067 0 154.1888-17.49333 209.527467-21.990403 60.416-69.57227 107.997867-129.98827 129.97973-55.338667 17.50187-106.7264 17.50187-209.527467 17.50187h-309.981866c-102.801067 0-154.197334 0-209.527467-17.50187-60.416-21.981863-107.9978667-69.56373-129.9882667-129.97973-17.4933333-55.338667-17.4933333-106.7264-17.4933333-209.527467v-309.981866c0-102.792534 0-154.197334 17.4933333-209.527467 21.9904-60.416 69.5722667-107.9978667 129.9882667-129.9882667 55.330133-17.4933333 106.7264-17.4933333 209.527467-17.4933333z" fill="url(#a)"/><g fill="#fff" fill-opacity=".4"><ellipse cx="511.208984" cy="511.604492" rx="125.771484" ry="385.620117" transform="matrix(-1 0 0 -1 1022.417968 1023.208984)"/><ellipse cx="511.208984" cy="511.604492" rx="125.771484" ry="385.620117" transform="matrix(.95105652 .30901699 -.30901699 .95105652 183.114831 -132.932558)"/><ellipse cx="511.208984" cy="511.604492" rx="125.771484" ry="385.620117" transform="matrix(.80901699 .58778525 -.58778525 .80901699 398.345804 -202.773338)"/><ellipse cx="511.208984" cy="511.604492" rx="125.771484" ry="385.620117" transform="matrix(.58778525 .80901699 -.80901699 .58778525 624.624611 -202.685839)"/><ellipse cx="511.208984" cy="511.604492" rx="125.771484" ry="385.620117" transform="matrix(.30901699 .95105652 -.95105652 .30901699 839.801506 -132.678626)"/><ellipse cx="511.208984" cy="511.604492" rx="125.771484" ry="385.620117" transform="matrix(0 1 -1 0 1022.813476 .395508)"/><ellipse cx="511.208984" cy="511.604492" rx="125.771484" ry="385.620117" transform="matrix(-.30901699 .95105652 -.95105652 -.30901699 1155.746034 183.510339)"/><ellipse cx="511.208984" cy="511.604492" rx="125.771484" ry="385.620117" transform="matrix(-.58778525 .80901699 -.80901699 -.58778525 1225.586814 398.741312)"/><ellipse cx="511.208984" cy="511.604492" rx="125.771484" ry="385.620117" transform="matrix(-.80901699 .58778525 -.58778525 -.80901699 1225.499315 625.020119)"/><ellipse cx="511.208984" cy="511.604492" rx="125.771484" ry="385.620117" transform="matrix(-.95105652 .30901699 -.30901699 -.95105652 1155.492102 840.197014)"/></g><use fill="#000" fill-opacity=".66" xlink:href="#c"/><use fill="url(#b)" xlink:href="#c"/></g></svg>