<svg height="26" viewBox="0 0 26 26" width="26" xmlns="http://www.w3.org/2000/svg"><path d="m13 4c-7.17970703 0-13 5.85586276-13 13.0794474 0 6.5283303 4.75391211 11.9393386 10.96875 12.9205526v-9.1397748h-3.30078125v-3.7807778h3.30078125v-2.8815657c0-3.2780365 1.9408086-5.08872255 4.910293-5.08872255 1.4223066 0 2.9100195.25545796 2.9100195.25545796v3.21877029h-1.6392695c-1.61492 0-2.118543 1.0082159-2.118543 2.0425652v2.4534948h3.6054688l-.5763672 3.7807778h-3.0291016v9.1397748c6.2148379-.981214 10.96875-6.3922223 10.96875-12.9205526 0-7.22358464-5.820293-13.0794474-13-13.0794474z" fill="#fffffe" fill-opacity=".7" fill-rule="evenodd" transform="translate(0 -4)"/></svg>