<svg height="31" viewBox="0 0 126 31" width="126" xmlns="http://www.w3.org/2000/svg"><path d="m11.71875 35.375 2.46875-.90625 2.28125-1.1875 2.0625-1.5 1.84375-1.75 1.28125-1.5.34375.53125 1.4375 1.625 1.59375 1.46875 1.78125 1.28125 1.9375 1.125 1.90625-1.53125-2.75-1.40625-1.6875-1.0625-1.53125-1.21875-1.375-1.375-.65625-.84375.8125-1.34375 1.21875-2.5 1-2.71875.75-3 .53125-2.96875h3.5625v-.6875l-2-1.65625-1.6875 1.65625h-7.46875l.5625-1.125.625-1.5.59375-1.59375.5-1.625.28125-1.03125.59375-.1875-.40625-.46875-1.90625-.71875-.40625 1.9375-.40625 1.59375-.4375 1.53125-1.03125 2.9375-1.21875 2.78125-2.125 3.9375.25.1875 1.03125-1.125.9375-1.1875.78125-1.15625.125 1.53125.46875 2.40625.65625 2.21875.875 2.09375 1.09375 1.96875-1.375 1.90625-1.625 1.75-1.875 1.5625-2.0625 1.375-2.28125 1.1875zm4.65625-22.8125v-.65625l-2-1.6875-1.6875 1.6875h-3.3125v-4.5625l.5-.3125-.5-.34375-2.03125-.34375v5.5625h-5.8125v.65625zm-14.71875 22.59375 1.15625-1.1875 1.0625-1.375.90625-1.5.8125-1.65625.6875-1.75.5625-1.90625.46875-2 .3125-2.09375.21875-2.25.0625-1h3.875v3.78125l-.03125 1.78125-.0625 1.65625-.09375 1.46875-.15625 1.3125-.15625 1.15625-.15625.96875-.21875.78125-.3125.8125-.21875.3125-.09375.125-.125.0625-.125.09375-.15625.0625-.15625.03125-.21875.03125-.21875.03125h-2.6875v.5l2.6875.5v1l.4375-.03125.40625-.03125.40625-.125.375-.15625.34375-.1875.34375-.28125.28125-.28125.28125-.3125.21875-.375.1875-.375.28125-.8125.25-.96875.1875-1.0625.1875-1.25.125-1.375.09375-1.53125.0625-1.65625.0625-1.875v-1.96875l-.03125-1.3125.84375-.5-1.84375-1.5-1 .84375h-3.84375v-4.25l.53125-.28125-.53125-.34375-2-.34375v6.78125l-.09375 2.15625-.21875 2.03125-.3125 1.90625-.40625 1.84375-.5 1.71875-.59375 1.625-.71875 1.53125-.78125 1.4375-.90625 1.375zm20.03125-9.34375-.71875-1.125-1-1.875-.8125-2.0625-.75-2.25-.46875-1.9375.5625-.90625.53125-1.0625h5.90625l-.34375 2.625-.65625 2.84375-.8125 2.59375-1.03125 2.40625zm34.21875 9.4375.40625-.03125.4375-.0625.375-.125.40625-.21875.34375-.28125.25-.34375.21875-.375.125-.40625.09375-.4375.03125-.40625v-17.3125h4.1875v-.65625l-2-1.6875-1.6875 1.6875h-.5v-7.78125l.5-.28125-.5-.34375-2.03125-.34375v8.75h-9.40625v.65625h9.40625v17.5l-.03125.15625-.0625.15625-.0625.0625-.15625.0625-.15625.03125-.1875.03125h-2.6875v.5l2.6875.5zm-13.25 0 .40625-.03125.4375-.0625.40625-.125.375-.21875.34375-.28125.28125-.34375.21875-.375.125-.40625.0625-.4375.03125-.40625v-7.96875l.25-.28125 1.3125-1.625.84375-1.15625.625.03125-.21875-.5625-1.59375-1.25-.0625.125-1.15625 1.6875v-9.3125l.84375-.6875-1.84375-1.5-1 .84375h-4.4375l.03125-.0625.96875-.875.84375-.84375 1.21875-1.40625.71875-.03125-.25-.53125-1.6875-1.15625-.15625.3125-.46875 1.09375-1.5625 3.125-.1875.375h-.375l-2-1.03125v15.875l-2.375.40625-.3125.09375.78125 1.875.4375.40625.25-.625 7.53125-2.375-1.875 2.1875-2.71875 2.75-1.40625 1.3125-2.90625 2.5.1875.25 1.65625-.96875 1.625-1.09375 1.5625-1.15625 1.5-1.25 1.5-1.34375 1.90625-1.90625v5.75l-.03125.1875-.03125.15625-.0625.15625-.0625.0625-.15625.0625-.15625.03125-.1875.03125h-3.03125v.5l3.03125.5zm.6875-20h-5.34375v-3.6875h5.34375zm0 4.875h-5.34375v-4.1875h5.34375zm9.84375 5.6875.5625-.5.125-.75-.6875-1.5-.4375-.6875-.5-.65625-.5625-.65625-.59375-.625-.6875-.5625-.71875-.53125-.78125-.5-.84375-.4375-.1875.25.65625.6875 1.125 1.3125.5.625.4375.65625.6875 1.28125.25.625.21875.625.1875.65625.46875.59375zm-15.1875-.40625v-4.59375h5.34375v3.46875l-.3125.375-.1875.03125-1.34375.15625zm45.6875 9.84375.4375-.03125.40625-.0625.40625-.125.375-.21875.34375-.28125.28125-.34375.21875-.375.125-.40625.0625-.4375.03125-.40625v-7.9375l.40625 1.28125.59375 1.46875.71875 1.40625.78125 1.28125.90625 1.1875 1 1.09375 1.09375.96875 1.1875.875 1.875-1.46875-1.8125-1.09375-1-.75-1-.875-.875-.96875-.84375-1.09375-.625-.9375.625-.40625 1.25-.9375 1.15625-.96875 1.6875-1.46875.625.125-.15625-.5625-1.4375-1.4375-.0625.09375h-.03125l-.40625.53125-3.5625 4.46875-.5625-1.03125-.6875-1.4375-.84375-2.09375v-1.40625h3.5625v1l2.03125-1v-8.90625l.84375-.65625-1.84375-1.53125-1.03125.84375h-5.5625l.0625-.09375.28125-.4375.71875-1.28125.5625-1.15625.71875-.25-.40625-.4375-1.90625-.75-.0625.46875v.1875l-.03125.75-.03125.40625-.0625.4375-.03125.4375-.09375.96875-.03125.5-.0625.25h-3.3125l-2.03125-1v13.4375l2.03125-1v-1.1875h3.6875v12.09375l-.03125.1875-.03125.15625-.03125.15625-.09375.0625-.125.0625-.15625.03125-.21875.03125h-2.6875v.5l2.6875.5zm-13.875-18.34375.53125-.53125.03125-.75-.28125-.625-.34375-.5625-.40625-.53125-.4375-.5-.5-.53125.28125-.28125 1-1.1875 1.34375-1.84375 1.3125-2.03125.625-.0625-.28125-.53125-1.71875-1.0625-.09375.1875-.09375.15625h.03125l-.5 1.21875-1.84375 4.125-.40625 1.03125-.09375-.09375-.53125-.40625-.5625-.34375-1.21875-.5625-.15625.25.46875.4375.4375.46875.71875.9375.59375.96875.25.5.21875.5.15625.53125.15625.53125.53125.53125zm.53125 18.5 2-1v-12.34375l.4375-.15625.90625-.34375 1.0625-.4375.21875.8125.09375.625.46875.625.75.125.625-.46875.125-.75-.28125-.71875-.28125-.65625-.3125-.625-.34375-.59375-.40625-.5625-.40625-.5-.4375-.5-.46875-.4375-1.03125-.71875-.1875.21875.3125.46875.3125.53125.53125 1.0625.4375 1.09375.125.40625-.15625.03125-.96875.09375-2.875.40625-1.75.21875 1.03125-1.21875 1.71875-2.21875 2.40625-3.46875 1.875-3 .625-.03125-.28125-.53125-1.65625-1.15625-.09375.1875-1.28125 2.4375-5.0625 9.09375-1.4375.125-1.3125.125.59375 1.96875.375.46875.3125-.59375.3125-.0625 2-.4375 1.375-.34375zm19.59375-20.46875h-9.25v-4.03125h9.25zm0 4.84375h-9.25v-4.1875h9.25zm-13.9375 14.75 1.0625-.625 1.03125-.71875.9375-.8125.84375-.875.8125-1 .6875-1.03125.65625-1.125.53125-1.21875.46875-1.25.1875-.59375.25-.125.84375-.5-1.84375-1.5-1 .84375h-5.03125v.65625h4.90625l-.125.65625-.34375 1.1875-.40625 1.15625-.46875 1.03125-.53125 1.03125-.59375 1-1.40625 1.8125-1.65625 1.75zm.15625-3.34375.625-.4375.15625-.75-.25-.75-.28125-.71875-.28125-.6875-.6875-1.25-.375-.59375-.40625-.53125-.5-.46875-.46875-.4375-.5-.375-.21875.1875.3125.53125.53125 1.09375.21875.59375.21875.5625.1875.625.15625.625.15625.65625.09375.65625.125.6875.4375.65625zm-10.59375 2.78125.625-.78125.5625-.78125.46875-.84375.4375-.84375.40625-.875.375-.90625.28125-.90625.25-.90625.21875-.90625.0625-.28125.59375-.28125-.46875-.375-1.96875-.59375-.0625.53125-.03125.71875-.09375.84375-.125.875-.375 1.71875-.21875.875-.28125.875-.90625 2.6875zm49.5 1.28125.40625-.03125.4375-.0625.40625-.09375.34375-.15625.375-.1875.34375-.21875.3125-.25.28125-.3125.25-.34375.21875-.34375.4375-1.125.25-1.15625v-1.21875l-.15625-1.1875-.375-1.25-.53125-1.28125-.75-1.25-.90625-1.3125-1.09375-1.3125-.96875-1.03125.09375-.0625 1-.875.90625-.875 1-1.1875h.15625l.40625 1.84375.5 1.875.59375 1.75.65625 1.65625.71875 1.53125.75 1.40625.84375 1.3125.90625 1.1875.9375 1.09375 1.03125.96875 1.8125-1.375-1.375-1.125-.9375-.875-.875-1-.875-1.125-.875-1.25-.8125-1.40625.5625-.25 1.21875-.625 2.78125-1.65625.625.21875-.0625-.59375-1.25-1.59375-.15625.125h.03125l-4.03125 3.875-1.3125-2.59375-1.4375-3.375h4.96875v1l2.03125-1v-4.03125l.84375-.6875-1.84375-1.5-1.03125.84375h-6.21875l.375-.21875.9375-.6875 1.90625-1.625.84375-.34375.84375-.5-1.84375-1.5-.71875.5625-.0625-.0625-.25.34375h-6.03125l.84375-1.375.65625-.0625-.3125-.5-1.71875-1.09375-.09375.1875-.53125 1.09375-1.15625 2.0625-1.375 1.875-.71875.84375h-.03125l-.78125.84375-.84375.8125-1.8125 1.5625.15625.25 1.125-.5 1.0625-.59375 1.125-.75v6.9375l2-1.03125v-1.15625h4.65625l-.71875.8125-.78125.84375-.9375.8125-1 .78125-1.09375.75-1.1875.75-1.3125.71875-2.875 1.4375.125.28125 1.59375-.40625 1.53125-.5 1.40625-.53125 1.34375-.625 1.25-.6875 1.15625-.75.65625-.46875 1.125 1.78125-.65625.59375-.875.625-1.90625 1.25-1.03125.59375-2.28125 1.15625-3.84375 1.71875.09375.28125 1.4375-.25 1.40625-.3125 1.3125-.40625 1.28125-.40625 1.1875-.46875 1.1875-.5 1.09375-.5625 1.03125-.5625 1.53125-1 .21875.4375.59375 1.4375-1.9375 1.28125-2.28125 1.3125-2.59375 1.25-5.96875 2.5.09375.28125 1.6875-.3125 1.625-.375 1.5625-.4375 2.875-.96875 2.65625-1.09375 1.21875-.59375 1.5625-.8125v.03125l.03125.96875-.15625.90625-.25.8125-.5.96875-.125.1875-.125.125-.15625.125-.15625.09375-.125.09375-.375.09375-.4375.0625h-2.6875v.5l2.6875.5zm-13.46875.15625 2.03125-1v-17.65625l.5-.3125-.5-.34375-1.03125-.15625.1875-.3125.96875-1.71875 1.78125-3.53125 1.375-3.0625.59375-.125-.34375-.5-1.78125-.9375-.78125 2.09375-1.46875 3.625-1.59375 3.5-1.75 3.375-2.75 4.875.25.1875 1.21875-1.4375 1.15625-1.5 1.9375-2.90625zm14.375-22.65625h-5.75l-.78125-.40625.53125-.46875.875-.90625.8125-.9375.5-.65625h6.09375l-1.15625 1.6875-.9375 1.4375zm-.4375 4.6875h-5.3125v-4.03125h5.3125zm7.3125 0h-5.3125v-4.03125h5.3125z" fill="#fff" transform="translate(-1 -5)"/></svg>