<svg height="30" viewBox="0 0 249 30" width="249" xmlns="http://www.w3.org/2000/svg"><g fill="none"><path d="m10.2919162 29.9684874 2.4638223-.9138656 2.2766966-1.1974789 2.0583833-1.5126051 1.8400698-1.7647059 1.2786926-1.512605.3430639.5357143 1.4346307 1.6386554 1.5905689 1.4810925 1.7776946 1.2920168 1.9336328 1.1344538 1.9024451-1.5441177-2.744511-1.4180672-1.6841317-1.0714286-1.5281937-1.2289916-1.3722554-1.3865546-.6549402-.8508403.8108783-1.3550421 1.2163173-2.5210084.998004-2.7415966.748503-3.0252101.5301896-2.99369746h3.5553893v-.69327731l-1.996008-1.67016807-1.6841318 1.67016807h-7.4538423l.5613773-1.13445378.6237525-1.51260504.5925648-1.60714286.499002-1.63865546.2806887-1.03991597.5925648-.18907563-.4054391-.47268907-1.9024451-.72478992-.4054391 1.95378151-.4054391 1.60714286-.4366268 1.54411765-1.0291916 2.96218487-1.2163174 2.80462181-2.1207585 3.9705883.249501.1890756 1.0291917-1.1344538.9356287-1.197479.7796906-1.1659664.1247505 1.5441177.4678144 2.4264706.6549401 2.2373949.8732535 2.1113446 1.0915669 1.9852941-1.3722555 1.9222689-1.6217565 1.7647059-1.8712575 1.5756302-2.0583832 1.3865547-2.2766966 1.1974789zm4.6469561-23.00420169v-.6617647l-1.996008-1.70168067-1.6841318 1.70168067h-3.30588819v-4.60084034l.499002-.31512605-.499002-.34663865-2.02719561-.34663866v5.6092437h-5.8008982v.6617647zm-14.6893713 22.78361349 1.15394211-1.197479 1.06037925-1.3865547.90444111-1.512605.81087825-1.6701681.68612774-1.7647058.56137725-1.922269.46781437-2.0168067.31187625-2.1113445.21831337-2.2689076.06237525-1.0084033h3.86726545v3.8130252l-.0311876 1.7962185-.0623753 1.670168-.0935628 1.4810925-.1559382 1.3235294-.15593808 1.1659664-.15593812.9768907-.21831338.7878151-.31187624.8193278-.21831338.315126-.09356287.1260504-.1247505.0630253-.1247505.0945378-.15593812.0630252-.15593813.0315126-.21831337.0315126-.21831337.0315126h-2.68213573v.5042017l2.68213573.5042017v1.0084033l.43662674-.0315126.40543913-.0315126.40543912-.1260504.37425149-.157563.34306388-.1890757.3430639-.2836134.2806886-.2836135.2806886-.315126.2183134-.3781513.1871257-.3781512.2806887-.8193278.249501-.9768907.1871257-1.0714286.1871258-1.2605042.1247505-1.3865546.0935628-1.5441177.0623753-1.670168.0623752-1.8907563v-1.9852941l-.0311876-1.3235295.8420659-.5042016-1.8400699-1.5126051-.998004.8508404h-3.83607783v-4.28571433l.53018962-.28361344-.53018962-.34663866-1.99600798-.34663866v6.83823529l-.09356288 2.1743698-.21831337 2.0483193-.31187625 1.9222689-.40543912 1.8592437-.49900199 1.7331933-.59256487 1.6386554-.71731537 1.5441177-.77969062 1.4495798-.90444112 1.3865546zm19.9912675-9.4222689-.7173154-1.1344538-.998004-1.8907563-.8108782-2.079832-.748503-2.2689075-.4678144-1.9537815.5613772-.9138656.5301897-1.07142856h5.894461l-.3430638 2.64705886-.6549402 2.867647-.8108782 2.6155462-1.0291916 2.4264706zm34.1504491 9.5168067.4054391-.0315126.4366267-.0630252.3742515-.1260505.4054392-.2205882.3430638-.2836134.249501-.3466387.2183134-.3781513.1247505-.4096638.0935629-.4411765.0311876-.4096639v-17.45798315h4.1791417v-.66176471l-1.996008-1.70168067-1.6841317 1.70168067h-.499002v-7.84663865l.499002-.28361345-.499002-.34663865-2.0271956-.34663866v8.82352941h-9.3874751v.66176471h9.3874751v17.64705885l-.0311876.157563-.0623753.157563-.0623752.0630252-.1559382.0630252-.1559381.0315126-.1871257.0315127h-2.6821358v.5042016l2.6821358.5042017zm-13.2235529 0 .4054391-.0315126.4366267-.0630252.4054392-.1260505.3742515-.2205882.3430638-.2836134.2806887-.3466387.2183133-.3781513.1247505-.4096638.0623753-.4411765.0311876-.4096639v-8.0357142l.249501-.2836135 1.3098802-1.6386555.8420659-1.1659663.6237525.0315126-.2183134-.5672269-1.5905688-1.2605042-.0623753.1260504-1.1539421 1.7016807v-9.39075634l.8420659-.69327731-1.8400699-1.51260504-.998004.85084034h-4.4286427l.0311876-.06302521.9668164-.88235294.8420659-.85084034 1.2163173-1.41806723.7173154-.0315126-.249501-.53571429-1.6841317-1.16596638-.1559382.31512605-.4678143 1.10294117-1.5593813 3.15126051-.1871257.37815126h-.3742515l-1.996008-1.03991597v16.00840332l-2.3702595.4096639-.3118762.0945378.7796906 1.8907563.4366267.4096639.249501-.6302521 7.5162176-2.394958-1.8712575 2.2058824-2.7133233 2.7731092-1.4034432 1.3235294-2.9004491 2.5210084.1871258.2521009 1.6529441-.9768908 1.6217565-1.1029412 1.5593812-1.1659664 1.497006-1.2605042 1.497006-1.355042 1.9024451-1.9222689v5.7983193l-.0311876.1890757-.0311876.157563-.0623753.157563-.0623752.0630252-.1559382.0630252-.1559381.0315126-.1871257.0315127h-3.0251996v.5042016l3.0251996.5042017zm.6861277-20.16806725h-5.3330838v-3.7184874h5.3330838zm0 4.91596635h-5.3330838v-4.222689h5.3330838zm9.8241018 5.7352942.5613773-.5042017.1247505-.7563025-.6861278-1.5126051-.4366267-.6932773-.499002-.6617647-.5613773-.6617647-.5925648-.6302521-.6861278-.5672269-.7173154-.5357143-.7796906-.5042017-.8420658-.4411764-.1871258.2521008.6549401.6932773 1.1227545 1.3235294.499002.6302521.4366268.6617647.6861277 1.2920168.249501.6302521.2183134.6302521.1871257.6617647.4678144.5987395zm-15.1571856-.4096639v-4.632353h5.3330838v3.4978992l-.3118762.3781513-.1871258.0315126-1.3410678.157563zm45.5963074 9.9264706.4366267-.0315126.4054391-.0630252.4054392-.1260505.3742515-.2205882.3430638-.2836134.2806887-.3466387.2183133-.3781513.1247505-.4096638.0623753-.4411765.0311876-.4096639v-8.0042016l.4054391 1.2920168.5925649 1.4810924.7173154 1.4180672.7796906 1.2920168.9044411 1.197479.998004 1.1029412 1.0915669.9768908 1.1851297.8823529 1.8712575-1.4810924-1.8088823-1.1029412-.9980039-.7563025-.998004-.882353-.8732535-.9768907-.8420659-1.1029412-.6237525-.9453782.6237525-.4096638 1.247505-.9453782 1.1539421-.9768907 1.6841317-1.4810925.6237525.1260505-.1559381-.5672269-1.4346307-1.4495799-.0623753.0945378h-.0311876l-.4054391.5357143-3.5553892 4.5063026-.5613773-1.039916-.6861277-1.4495798-.8420659-2.1113446v-1.4180672h3.5553892v1.0084034l2.0271956-1.0084034v-8.98109245l.8420659-.6617647-1.8400699-1.54411765-1.0291916.85084034h-5.5513972l.0623753-.09453782.2806886-.44117647.7173154-1.29201681.5613772-1.16596638.7173154-.25210084-.4054392-.44117647-1.9024451-.75630252-.0623752.47268907v.18907563l-.0311876.75630252-.0311877.40966387-.0623752.44117647-.0311876.44117647-.0935629.97689076-.0311876.50420168-.0623753.25210084h-3.3058882l-2.0271956-1.00840337v13.55042013l2.0271956-1.0084033v-1.197479h3.6801397v12.1953781l-.0311876.1890757-.0311876.157563-.0311877.157563-.0935628.0630252-.1247505.0630252-.1559382.0315126-.2183133.0315127h-2.6821358v.5042016l2.6821358.5042017zm-13.8473054-18.4978992.5301896-.5357143.0311876-.7563025-.2806886-.63025209-.3430639-.56722689-.4054391-.53571429-.4366267-.50420168-.499002-.53571429.2806886-.28361344.998004-1.19747899 1.3410678-1.8592437 1.3098803-2.04831933.6237525-.06302521-.2806886-.53571428-1.7153194-1.07142857-.0935629.18907563-.0935629.15756302h.0311877l-.499002 1.2289916-1.8400699 4.15966386-.4054391 1.03991597-.0935629-.09453782-.5301896-.40966386-.5613772-.34663866-1.2163174-.56722689-.1559381.25210084.4678143.44117647.4366268.47268908.7173154.94537815.5925648.97689076.249501.50420168.2183134.50420168.1559381.53571425.1559381.5357143.5301897.5357143zm.5301896 18.6554622 1.996008-1.0084034v-12.447479l.4366267-.157563.9044411-.3466386 1.0603793-.4411765.2183134.8193277.0935628.6302521.4678144.6302521.748503.1260504.6237525-.472689.1247505-.7563025-.2806886-.72479-.2806886-.6617647-.3118763-.6302521-.3430639-.5987395-.4054391-.5672269-.4054391-.5042016-.4366268-.5042017-.4678143-.4411765-1.0291916-.7247899-.1871258.2205882.3118763.4726891.3118762.5357143.5301896 1.0714286.4366268 1.1029411.1247505.4096639-.1559382.0315126-.9668163.0945378-2.8692615.4096639-1.746507.2205882 1.0291916-1.2289916 1.7153194-2.2373949 2.4014471-3.49789919 1.8712575-3.02521008.6237525-.03151261-.2806886-.53571428-1.6529442-1.16596639-.0935628.18907563-1.2786926 2.45798319-5.0523953 9.17016803-1.4346307.1260505-1.3098802.1260504.5925648 1.9852941.3742515.4726891.3118763-.5987395.3118762-.0630252 1.996008-.4411765 1.3722555-.3466387zm19.5546407-20.6407563h-9.2315369v-4.06512605h9.2315369zm0 4.8844538h-9.2315369v-4.2226891h9.2315369zm-13.9096806 14.8739496 1.0603792-.6302521 1.0291916-.72479.9356288-.8193277.8420658-.8823529.8108783-1.0084034.6861277-1.039916.6549402-1.1344537.5301896-1.2289916.4678143-1.2605042.1871258-.5987395.249501-.1260505.8420659-.5042016-1.8400699-1.5126051-.998004.8508404h-5.0212076v.6617647h4.8964571l-.1247505.6617647-.3430639 1.197479-.4054391 1.1659663-.4678144 1.039916-.5301896 1.039916-.5925648 1.0084033-1.4034432 1.8277311-1.6529441 1.7647059zm.1559381-3.3718488.6237525-.4411765.1559381-.7563025-.249501-.7563025-.2806886-.7247899-.2806886-.6932773-.6861278-1.2605042-.3742515-.5987395-.4054391-.5357143-.499002-.4726891-.4678144-.4411764-.4990019-.3781513-.2183134.1890756.3118762.5357143.5301896 1.1029412.2183134.5987395.2183134.5672269.1871257.6302521.1559382.6302521.1559381.6617647.0935629.6617647.1247505.6932773.4366267.6617647zm-10.5726048 2.8046219.6237525-.7878152.5613773-.7878151.4678143-.8508403.4366268-.8508404.4054391-.8823529.3742515-.9138655.2806886-.9138656.249501-.9138655.2183134-.9138656.0623752-.2836134.5925649-.2836135-.4678144-.3781512-1.9648203-.5987395-.0623753.5357143-.0311876.7247899-.0935629.8508403-.1247505.8823529-.3742515 1.7331933-.2183133.882353-.2806887.8823529-.9044411 2.710084zm49.4011974 1.2920168.405439-.0315126.436627-.0630252.405439-.0945379.343064-.157563.374252-.1890756.343063-.2205882.311877-.2521009.280688-.315126.249501-.3466387.218314-.3466386.436626-1.1344538.249501-1.1659664v-1.2289916l-.155938-1.197479-.374251-1.2605042-.53019-1.2920168-.748503-1.2605042-.904441-1.3235294-1.091567-1.3235294-.966816-1.039916.093563-.0630252.998004-.882353.904441-.8823529.998004-1.197479h.155938l.405439 1.8592437.499002 1.8907563.592565 1.7647059.65494 1.6701681.717315 1.5441176.748503 1.4180672.842066 1.3235294.904441 1.197479.935629 1.1029412 1.029192.9768908 1.808882-1.3865547-1.372255-1.1344537-.935629-.882353-.873254-1.0084033-.873253-1.1344538-.873254-1.2605042-.810878-1.4180672.561377-.2521009 1.216318-.6302521 2.775698-1.6701681.623753.2205883-.062375-.5987395-1.247505-1.6071429-.155939.1260504h.031188l-4.023204 3.9075631-1.30988-2.6155462-1.434631-3.4033614h4.958833v1.0084034l2.027195-1.0084034v-4.06512604l.842066-.69327731-1.84007-1.51260504-1.029191.85084033h-6.206338l.374252-.22058823.935629-.69327731 1.902445-1.63865546.842066-.34663866.842066-.50420168-1.84007-1.51260504-.717316.56722689-.062375-.06302521-.249501.34663865h-6.019212l.842066-1.38655462.65494-.06302521-.311876-.50420168-1.715319-1.10294117-.093563.18907563-.53019 1.10294117-1.153942 2.07983193-1.372255 1.89075631-.717316.85084033h-.031187l-.779691.85084034-.842066.81932773-1.808882 1.57563025.155938.25210084 1.122755-.50420168 1.060379-.59873949 1.122754-.75630252v6.99579835l1.996008-1.039916v-1.1659664h4.646956l-.717315.8193277-.779691.8508404-.935628.8193277-.998004.7878151-1.091567.7563026-1.18513.7563025-1.30988.7247899-2.869262 1.4495798.124751.2836135 1.590569-.4096639 1.528193-.5042017 1.403444-.5357143 1.341067-.6302521 1.247505-.6932773 1.153942-.7563025.654941-.4726891 1.122754 1.7962185-.65494.5987395-.873254.6302521-1.902445 1.2605042-1.029191.5987395-2.276697 1.1659664-3.836078 1.7331933.093563.2836134 1.434631-.2521008 1.403443-.3151261 1.30988-.4096638 1.278693-.4096639 1.18513-.4726891 1.185129-.5042017 1.091567-.5672268 1.029192-.5672269 1.528193-1.0084034.218314.4411765.592565 1.4495798-1.933633 1.2920168-2.276697 1.3235294-2.588572 1.2605042-5.956837 2.5210084.093563.2836135 1.684132-.3151261 1.621756-.3781512 1.559382-.4411765 2.869261-.9768908 2.650948-1.1029411 1.216317-.5987395 1.559382-.8193278v.0315126l.031187.9768908-.155938.9138655-.249501.8193278-.499002.9768907-.12475.1890757-.124751.1260504-.155938.1260504-.155938.0945378-.124751.0945378-.374251.0945378-.436627.0630253h-2.682136v.5042016l2.682136.5042017zm-13.441866.157563 2.027196-1.0084034v-17.8046218l.499002-.3151261-.499002-.3466386-1.029192-.157563.187126-.3151261.966816-1.73319327 1.777695-3.56092437 1.372255-3.08823529.592565-.12605042-.343064-.50420168-1.777694-.94537815-.779691 2.11134453-1.465818 3.65546219-1.5905693 3.52941176-1.746507 3.4033613-2.744511 4.9159664.249501.1890757 1.2163174-1.4495799 1.1539421-1.512605 1.9336328-2.9306723zm14.346307-22.84663866h-5.738523l-.77969-.40966386.530189-.47268908.873254-.91386554.810878-.94537815.499002-.66176471h6.081587l-1.153942 1.70168067-.935629 1.44957983zm-.436626 4.72689076h-5.301897v-4.06512605h5.301897zm7.297904 0h-5.301896v-4.06512605h5.301896z" fill="#fff"/><path d="m138.576 29.962c.182 0 2.041-.923 3.159-1.95.156-.143.806-.897.91-.897.091 0 .169.143.208.195.572 1.001 1.768 2.379 1.872 2.379.039 0 .208-.143.234-.169.091-.039.767-.403 1.443-.429.156-.013.273-.013.273-.078 0-.039-.377-.208-.481-.26-1.092-.494-2.106-1.326-2.821-2.301-.052-.052-.104-.156-.104-.325 0-.104.039-.208.416-1.092.195-.442.234-.585.637-1.898.104-.338.156-.416.377-.585.156-.13.182-.195.182-.247 0-.091-.065-.13-.247-.247s-.182-.117-.182-.156c0-.052.013-.065.182-.065h1.014c.338 0 .559 0 .559-.169s-.897-.871-.962-.871c-.13 0-.442.533-.52.611-.0468.0585-.07254.08541-.418392.090207l-2.233608.000793c-.104 0-.286 0-.286-.208 0-.013.728-2.041.897-2.171.182-.143.273-.221.273-.299 0-.299-1.274-.663-1.287-.663-.039 0-.091 0-.091.052 0 .039.065.247.065.286 0 .819-.286 1.82-.975 3.666-.104.299-.741 1.82-.741 1.833 0 .052.039.052.052.052.195 0 1.118-1.677 1.261-1.677.078 0 .104.104.117.156.13 1.17.195 1.794.702 3.159.104.273.143.403.143.533 0 .819-2.509 2.847-3.51 3.471-.065.052-.221.156-.221.208s.065.065.104.065zm-1.43-.364c.585 0 1.261-.494 1.573-1.196.481-1.066.767-3.25.819-4.433.013-.325.039-.403.117-.468.221-.195.26-.221.26-.286 0-.195-.871-.689-.923-.689-.065 0-.286.273-.338.312-.104.0728-.19968.08736-.293696.090272l-.590304.000728c-.312 0-.351-.169-.351-.312 0-.091.104-1.014.117-1.04.013-.052.234-.221.234-.286 0-.104-.052-.13-.286-.195-.104-.039-.143-.052-.143-.104 0-.0312.02496-.03744.081536-.038688l1.998464-.000312c.715 0 .793 0 .793-.208 0-.195-.819-.832-.884-.832-.078 0-.442.559-.559.637-.06825.056875-.096688.0639844-.311746.064873l-.104254.000127c-.572 0-.676 0-.676-.403l.000728-.449488c.002912-.489632.017472-.574912.090272-.668512.039-.065.325-.325.325-.416 0-.208-1.443-.507-1.456-.507-.039 0-.065.013-.065.052 0 0 .143.429.156.494.104.442.104 1.274.104 1.56 0 .156-.039.325-.377.325-.26 0-1.482-.078-1.768-.078-.026 0-.039 0-.039.026s0 .026.052.091l.247.299c.052.052.065.078.117.078.039 0 .234-.026.273-.026.338-.026.663-.039 1.001-.039.195 0 .299.065.299.338 0 .247-.039 1.248-.26 2.691-.455 3.003-1.209 4.472-1.56 5.122-.026.052-.26.338-.26.429 0 .013.013.039.039.039.104 0 .715-.585 1.04-1.105.962-1.521 1.274-3.107 1.573-4.589.117-.585.117-.598.455-.598h.65c.26 0 .416.039.416.325 0 .858-.273 2.626-.481 3.523-.143.624-.429 1.404-.884 1.404-.169 0-1.053-.208-1.079-.208-.013 0-.039.026-.039.039 0 .026.013.039.143.169.39.364.429.403.52.65.156.39.156.416.234.416zm5.551-4.329c-.286 0-1.118-2.119-1.118-3.159 0-.26.143-.273.312-.273h1.313c.182 0 .429.013.429.416 0 .156-.065.741-.546 2.197-.247.741-.273.819-.39.819zm9.204 4.615c.169 0 .923-.143.923-1.092 0-.4894118-.034547-2.5449412-.038611-3.1644112l-.000389-.0985888c0-.156 0-.507.39-.611.169-.052.286-.078.286-.169 0-.065-.182-.195-.325-.299-.3393-.234-.37323-.37323-.376623-.692523l.000586-.8968474c.001926-.7202963.007704-1.6562963.025037-1.7256296.013-.078.052-.195.221-.299.169-.117.182-.156.182-.208 0-.234-.923-.663-.949-.663-.065 0-.234.234-.273.273-.0936.0832-.20384.09984-.29744.103168l-1.40556.000832c-.078 0-.156 0-.156-.104s.871-.897.949-.949c.091-.052.572-.26.572-.364 0-.065-.26-.208-.364-.273-.117-.065-.689-.481-.741-.481-.026 0-.026.065-.026.117l-.001016.1099589c-.007621.2781518-.072396.6080999-.622984 1.6060411-.13.234-.169.312-.312.312-.156 0-.754-.312-.897-.312-.026 0-.065 0-.065.052s.078.286.078.338c.066182.6145455.077355.9609256.078527 1.5042104l.000105.9539529c.002604.6437523.012368 2.0641034.012368 2.3908367 0 .247-.117.299-.325.299-.143 0-.221-.013-.299-.026-.065-.013-.338-.117-.39-.117s-.078.052-.078.091c0 .026.364.897.39.923.026.013.078.065.13.065.078 0 .39-.208.455-.221 1.339-.39 1.482-.442 2.418-.793.156-.065.416-.169.455-.169s.065.026.065.065c0 .117-1.261 1.573-2.652 2.717-.169.13-1.027.806-1.027.832s.026.065.078.065c.312 0 2.73-1.534 3.848-2.717.039-.039.091-.078.143-.078.091 0 .091.13.091.169l.000601.1980314c.002403.5511153.010666 1.8039686-.000601 1.9729686-.039.403-.182.429-.52.429-.104 0-.611-.052-.715-.052-.065 0-.091.026-.078.052s.442.312.494.351c.208.169.26.247.364.442.039.091.091.143.286.143zm4.732.091c.715 0 1.079-.338 1.079-1.196 0-1.56-.104-4.069-.104-5.629 0-.533 0-.65.507-.65h.793c.442 0 .702 0 .702-.182 0-.078-.663-.832-.884-.832-.143 0-.182.039-.494.455-.117.156-.247.208-.351.208-.247 0-.273-.182-.286-.247 0-.0367059-.034547-1.5013426-.038611-2.0853768l-.000088-.3613315c.001505-.3710417.010532-.430625.064699-.5172917.026-.052.325-.273.325-.351s-.039-.091-.39-.182c-.13-.026-.845-.195-.923-.195-.039 0-.091 0-.091.039 0 .052.091.325.104.377.078.468.156 2.678.156 3.159 0 .3276-.22113.36036-.37908.363636l-.54392.000364c-.611 0-1.144-.013-1.781-.039-.078 0-.481-.052-.572-.052-.026 0-.052.013-.052.039 0 .013.013.039.065.091l.247.286c.052.065.065.091.117.091.039 0 .234-.026.273-.039.143 0 .533-.026 1.638-.026h.559c.247 0 .39.026.442.273.065.299.065 4.394.065 5.005 0 .039 0 .598-.026.858-.026.169-.104.338-.429.338-.13 0-.754-.091-.897-.091-.039 0-.13 0-.13.052 0 .039.143.117.195.143.26.13.494.234.598.468.169.364.182.429.442.429zm-5.057-7.982h-1.664c-.396 0-.426462-.1329231-.428805-.5725917l-.000195-.1164083c0-.455 0-.624.429-.624h1.664c.429 0 .429.143.429.676 0 .468 0 .637-.429.637zm.039 1.547h-1.703c-.384 0-.413538-.1550769-.415811-.5981538l-.000189-.1168462c0-.273 0-.494.416-.494h1.703c.403 0 .416.104.416.91 0 .221-.208.299-.416.299zm-1.833 1.859c-.195765 0-.241827-.0230311-.246569-.8711191l-.000431-.1688809c0-.286.013-.481.403-.481h1.69c.416 0 .416.143.416.689 0 .299-.273.377-.377.403-.481.13-1.69.429-1.885.429zm5.304.949c.195 0 .403-.182.403-.52 0-.143-.039-.728-.65-1.196-.169-.13-.819-.585-.923-.585-.026 0-.026.026-.026.039s.091.182.104.195c.325.546.572 1.183.624 1.339.195.637.221.728.468.728zm6.084-4.251c.052 0 .247-.143.299-.169.013 0 .715-.143.78-.156.481-.104 2.925-.637 3.016-.637.156 0 .169.078.221.208.156.442.247.689.468.689s.39-.26.39-.559c0-.936-1.456-1.833-1.638-1.833-.026 0-.052.026-.052.052 0 .065.637.975.637 1.144 0 .104-.052.104-.481.143-.434571.0334286-1.12702.0477551-1.643458.0511662l-.241542.0008338c-.091 0-.234 0-.234-.117 0-.104.832-1.521.936-1.638.052-.078.468-.338.468-.442 0-.156-.182-.221-.455-.325-.117-.039-.728-.312-.793-.312s-.065.026-.065.247c0 .689-.429 1.833-.546 2.132-.13.338-.182.455-.442.455-.117 0-.676-.091-.806-.091s-.195.052-.195.195c0 .195.143.962.377.962zm10.933.689c0-.078-.078-.169-.169-.286-.143-.169-.195-.377-.221-.507-.026-.078-.026-.585-.117-.585-.052 0-.117.117-.143.182-.065.208-.091.247-.273.637-.156.312-.286.598-1.729.598-1.404 0-1.404-.364-1.404-1.157 0-.13.013-.247.104-.338.026-.013.416-.156.481-.182.377-.143 2.171-.962 2.613-1.014.273-.039.364-.091.364-.182 0-.117-.832-.754-.923-.754s-.416.377-.494.455c-1.092.936-1.976 1.352-2.028 1.352-.095727 0-.113132-.0348099-.116297-.3037956l-.000391-.3822924c.001248-.302432.007488-.866112.038688-.938912.026-.078.325-.338.325-.429 0-.26-1.131-.429-1.17-.429s-.104 0-.104.052c0 .065.039.364.039.429.011.253.003385 1.353.000781 1.8823669l-.000781.2236331c0 2.158.13 2.535 2.236 2.535l.225-.0004965c.893-.0054618 2.466-.0710035 2.466-.8575035zm-7.488 7.137c.546 0 1.079-.416 1.079-1.248 0-.3761333-.045298-1.9753067-.051337-2.493373l.000332-.2539983c.004763-.5145491.025005-1.7911581.025005-1.8026287 0-.221 0-.338.039-.455.026-.065.26-.338.26-.403 0-.221-.689-.689-.754-.689-.052 0-.247.208-.338.286-.0832.0832-.18304.09984-.286208.103168l-1.923792.000832c-.104 0-.273 0-.507-.117-.52-.273-.572-.299-.702-.299-.039 0-.091.013-.091.078 0 .156.078.832.078 1.001.013.208.026.832.026 1.898 0 1.131-.013 2.288-.065 3.198 0 .13-.039.702-.039.819 0 .13.013.325.312.325.663 0 .663-.624.663-.884v-2.08c0-.338.247-.338.377-.338h1.703c.403 0 .403.117.403.845 0 1.391 0 1.469-.416 1.469-.104 0-.598-.052-.702-.052-.052 0-.091.039-.091.078 0 .091.416.26.468.312.208.156.286.286.377.52.039.117.065.182.156.182zm-.121753-5.3175508-1.763247.0005508c-.381333 0-.413111-.1420069-.415759-.496114l-.000241-.101886c0-.533 0-.689.39-.689h1.768c.364 0 .364.208.364.52 0 .6916-.022649.7603556-.342753.7664492zm7.466753 4.7325508c.351-.234.442-.494.442-.611s-.286-.585-.312-.676c-.13-.39-.143-.52-.182-.832-.013-.065-.039-.156-.091-.156-.065 0-.078.052-.169.364-.396 1.284-.548308 1.3827692-1.755479 1.3903669l-.324521.0006331c-1.404 0-1.534-.156-1.534-1.183 0-.416.065-.442.585-.611.416-.13 2.561-1.027 2.6-1.027.26-.039.364-.078.364-.182 0-.117-.832-.754-.949-.754s-.481.442-.572.507c-.793.65-1.755 1.274-1.911 1.274-.0832 0-.09984-.07488-.103168-.1248l-.000471-.2267417c.001806-.430625.012639-1.308125.077639-1.4814583.026-.065.221-.299.221-.351 0-.273-1.079-.403-1.105-.403-.052 0-.156 0-.156.065s.039.364.039.416c0 .507-.013 2.756-.013 3.211.026 1.417.481 1.716 2.392 1.716 1.573 0 2.067-.052 2.457-.325zm-7.478172-3.120754-1.751828.000754c-.372 0-.400615-.1329231-.402817-.552142l-.000183-.110858c0-.403 0-.598.403-.598h1.69c.403 0 .403.104.403.858 0 .351-.15795.39663-.341172.402246zm17.384172 2.093754c0-.312-.364-.442-.637-.442-.169 0-1.001.208-1.183.234-.26.052-.507.078-.832.078-.377 0-1.677 0-1.677-.897 0-.741 1.157-1.547 1.261-1.547.091 0 .091.104.091.156 0 .013-.039.637-.039.767 0 .234.052.663.403.663.481 0 .481-.741.481-.949 0-.117-.026-.663-.026-.78 0-.273.013-.416.221-.546.234-.143 1.703-.728 2.028-.871.806-.351 1.833-.78 1.833-1.391 0-.546-.507-1.157-1.222-1.157-1.131 0-1.976 1.183-2.405 1.781-.065.104-.494.702-.533.702-.026 0-.039-.026-.13-.247-.338-.767-.936-.793-1.105-.793-.195 0-.364.039-.507.104-.117.052-.364.143-.403.143s-.052-.026-.052-.052c0-.052.026-.091.091-.208.338-.585.39-.689.702-1.404.286-.663.299-.689.494-.767.598-.234 1.547-.598 1.547-1.027 0-.273-.494-.338-.585-.338-.52-.039-.572-.065-.585-.234-.026-.286-.351-.403-.663-.403-.234 0-.572.104-.572.208 0 .078.273.312.312.377.091.169.104.377.104.455l-.001462.0894307c-.011698.244236-.116982.5215693-1.064538.5215693-.351 0-.702-.156-.858-.234-.078-.039-.416-.247-.494-.247s-.078.052-.078.091c0 .507.663 1.144 1.157 1.144.117 0 .65-.104.78-.104.052 0 .143.013.143.091 0 .182-.52 1.261-1.105 1.937-.884 1.027-1.248 1.443-1.248 1.833 0 .351.247.429.494.429.416 0 .559-.312.702-.637.338-.78 1.105-1.378 1.599-1.378.52 0 .624.728.624 1.313 0 .195-.065.351-.195.455-1.222.988-1.716 1.404-1.716 2.236 0 1.027.871 1.703 2.522 1.703.312 0 2.327-.052 2.327-.858zm-3.042-8.177c-.026 0-.026-.039-.026-.091s.052-.416.234-.416c.117 0 .442.026.442.195 0 .143-.624.312-.65.312zm1.235 4.277c-.039 0-.052-.039-.052-.065 0-.208 1.118-2.223 2.197-2.223.169 0 .455.065.455.39 0 .858-2.561 1.898-2.6 1.898zm16.107 4.095c0-.4265625-.057129-2.3956055-.06427-3.0578247l.000143-1.7480315c.001833-1.6448087.007514-3.8986922.025127-3.9691438.039-.221.247-.221.351-.221h1.092c.416 0 .819 0 .819-.208 0-.13-1.053-.936-1.183-.936s-.364.299-.468.455c-.195.286-.273.338-.936.338h-6.799c-.611 0-1.144 0-1.781-.039-.091 0-.481-.052-.572-.052-.026 0-.052.013-.052.039 0 .013.026.052.052.078l.26.299c.013.026.065.091.117.091.039 0 .221-.039.273-.039.238333-.0325.585-.0288889 1.220556-.0267824l6.215444.0007824c.273 0 .403.039.416.377.039 1.014.039 6.994.039 8.229 0 .377 0 .624-.572.624-.169 0-.975-.039-1.157-.039-.039 0-.117 0-.117.065 0 .117.208.156.26.156.234.039.819.325.962.728.104.26.104.286.403.286l.042521-.0009402c.22146-.0098727 1.153479-.1234076 1.153479-1.4290598zm-7.137-1.378c.507 0 .533-.533.559-.871.013-.312.312-.325.377-.325h1.508c.26 0 .416.052.416.403 0 .325 0 .52.299.52.416 0 .624-.351.624-.767 0-.4246667-.067947-2.1856178-.077006-2.7461778l-.000994-.1008222c0-.312 0-.416.156-.637.078-.117.208-.273.208-.325 0-.195-.897-.78-.975-.78-.065 0-.286.273-.338.325-.0936.0832-.19552.09984-.299104.103168l-1.520896.000832c-.13 0-.273 0-.507-.13-.208-.117-.546-.299-.741-.299-.143 0-.156.104-.156.195 0 .234.091 1.222.104 1.43.013.286.013.52.013.884 0 .416-.052 2.249-.052 2.652 0 .182.026.468.403.468zm2.483-1.534h-1.547c-.078 0-.286 0-.364-.169-.040444-.1213333-.049432-1.4458889-.051429-2.218203l-.000571-.485797c0-.208 0-.455.377-.455h1.56c.156 0 .325.052.364.234.026.143.039 2.158.039 2.431 0 .481 0 .663-.377.663zm10.53 4.251c.377 0 .481-.169.481-.715 0-.039-.052-2.028-.052-2.405-.0078-.4134-.01092-.60684-.012168-1.049256l-.000832-1.355744c0-.065 0-.234.117-.234.156 0 .507.416.65.754.351.819.416.988.676.988.13 0 .403-.143.403-.611 0-.819-.767-1.17-1.43-1.365-.377-.104-.416-.117-.416-.364s0-.351.065-.494c.013-.026.637-.702.754-.845.182-.221.676-.832.819-.884.416-.13.442-.143.442-.26 0-.221-.663-.741-.767-.741-.13 0-.312.312-.338.351-.039.065-.052.104-.338.104h-.351c-.091 0-.234 0-.325-.169-.030333-.0808889-.037074-.3819753-.038572-.7075281l.000196-.5355839c.002496-.279968.014976-.340288.077376-.433888.026-.039.221-.195.221-.247 0-.247-.793-.377-1.131-.403-.065 0-.13.013-.13.078s.078.338.091.39c.039.299.065.715.065 1.586 0 .351-.117.429-.507.429-.234 0-1.313-.078-1.443-.078-.026 0-.052 0-.052.026s.013.026.065.091l.247.299c.039.052.065.078.117.078.039 0 .234-.026.273-.026.13-.013.507-.039 1.638-.039h.819c.065 0 .221 0 .221.156 0 .208-.78 1.209-2.028 2.535-.221.221-1.443 1.339-1.443 1.352 0 .026.026.039.039.039.299 0 1.898-1.274 2.002-1.274.117 0 .117.208.13.26v1.17c0 .325 0 .676-.013 1.781 0 .276-.044308 1.5156923-.051124 1.9604024l-.000876.0935976c0 .234 0 .715.455.715zm7.618-.143c1.443 0 1.846-.624 1.846-.819 0-.091-.286-.468-.325-.546-.143-.312-.221-.962-.234-1.092-.026-.208-.052-.26-.091-.26-.026 0-.143.52-.156.572-.234 1.066-.273 1.248-1.118 1.248-1.034526 0-1.11231-.2216842-1.117632-.6982132l-.000368-2.8247868c0-.312 0-.455.338-.455.195 0 .234.078.273.169.078.143.143.247.377.247.078 0 .65 0 .65-.702 0-.052-.078-1.144-.091-1.352-.052-.8632-.0624-1.17728-.06448-2.233504l-.00052-.951496c0-.299 0-.377.156-.494.208-.169.234-.182.234-.26 0-.208-.858-.611-.975-.611-.091 0-.13.065-.273.247-.075833.1191667-.160694.1390278-.277153.142338l-2.257847.000662c-.104 0-.182 0-.377-.078-.65-.273-.728-.312-.819-.312-.078 0-.117.052-.117.104 0 .182.091.468.104.663.026.234.052 1.079.052 1.742 0 .884 0 2.665-.052 3.445 0 .065-.026.39-.026.468 0 .247.052.39.299.39.221 0 .52-.117.637-.338.13-.234.143-.286.403-.286h.637c.182 0 .429 0 .429.468l.000993 2.7314839c.001347.7198788.004522.8616373.012007.9215161.039.351.078.754 1.924.754zm-.949-8.957h-2.106c-.117 0-.39 0-.39-.299l.000832-.334672c.001248-.236808.004368-.512928.012168-.536328.065-.208.247-.208.377-.208h2.106c.117 0 .39 0 .39.299 0 .104 0 .832-.013.871-.078.208-.247.208-.377.208zm.116213 1.806358-2.287213.000642c-.234 0-.325-.13-.325-.312l.000446-.3307064c.003566-.7852072.035665-.8262936.324554-.8262936h2.236c.325 0 .325.234.325.377 0 .9822222 0 1.0831728-.273787 1.091358zm-.081872 1.9372686-2.101341.0003734c-.366364 0-.399669-.161157-.402697-.3760331l.000167-.3839637c.00376-.7578247.037603-.8208403.342189-.8256317l2.101341-.0003715c.403 0 .403.195.403.429 0 1.0714737 0 1.1512022-.342659 1.1566266zm-5.026341 4.9923734c.754-.247 1.95-.637 2.86-2.21.078-.143.416-.845.507-1.001.039-.065.39-.338.39-.442 0-.117-.377-.286-.52-.338-.013-.013-.325-.143-.429-.143s-.117.052-.221.52c-.13.52-.507 2.028-2.431 3.263-.104.065-.65.364-.65.403 0 .013.026.039.065.039.013 0 .169-.013.429-.091zm11.375.455c.286 0 .689-.364.728-.702.026-.169-.013-.988-.013-1.17l.000738-.2473587c.00662-1.2959469.057538-4.9194689.142262-5.1736413.013-.052.208-.299.208-.364 0-.143-.091-.208-.273-.299-.13-.065-.221-.143-.221-.286 0-.156.286-.65.416-.871.676-1.183.754-1.313 1.001-1.586.052-.052.429-.286.429-.377 0-.208-1.248-.754-1.313-.754-.078 0-.078 0-.169.403-.078.312-.637 1.911-1.833 4.134-.208.39-1.417 2.353-1.417 2.405s.052.078.078.078c.234 0 1.3-1.391 1.677-1.885.247-.325.299-.403.364-.403.104 0 .13.039.13 1.001 0 .845-.117 3.718-.13 4.056-.013.234-.091 1.339-.091 1.586 0 .13 0 .455.286.455zm9.243-.91c0-.104-.273-.468-.312-.546-.091-.156-.273-.585-.351-1.235-.052-.455-.052-.468-.13-.468-.104 0-.104.052-.143.468-.078.845-.117 1.144-.234 1.326-.136783.2238261-.309248.3168166-1.746111.3244797l-.531552-.000424c-1.377314-.0105568-1.472301-.1340448-1.478852-1.495641l-.000023-.5115517c.002707-.6808824.018012-2.5076525.064538-2.658863.091-.247.637-.559.988-.767.754-.429 1.053-.663 2.483-1.742.338-.247.442-.299.78-.325.091 0 .286-.026.338-.13.13-.286-.975-1.235-1.014-1.235s-.221.234-.26.299c-1.04 1.352-2.834 3.094-3.159 3.094-.1365 0-.153563-.2090156-.155695-.3396504l-.000305-.0503496c0-.611.052-3.705.104-3.926.026-.13.039-.143.221-.312.026-.026.052-.065.052-.104 0-.117-.052-.13-.52-.299-.286-.104-.676-.247-.741-.247-.052 0-.091.039-.091.156 0 .078.052.416.065.481.039.325.052.533.052 1.521 0 1.0780714-.072528 6.1089222-.077709 7.5625854l.000168.3542016c.008269 1.1980118.165365 1.5294674 3.150202 1.5465089l.475138.0001474c.796994-.0055673 2.172201-.0668069 2.172201-.7404433zm6.097.728c.403 0 2.366-1.612 2.366-4.134 0-.767-.156-1.209-.377-1.755-.156-.39-.169-.481-.169-.845 0-1.144.026-1.326.208-1.404.247-.104 1.092-.13 1.404-.13.247 0 1.456.117 1.729.117.455 0 .702-.117.702-.455 0-.455-.572-.507-.741-.507-.104 0-.65.065-.78.065-.481 0-.819-.13-1.144-.26-.767-.325-1.144-.52-1.144-.819 0-.065.052-.338.052-.403 0-.416-.507-.65-1.079-.65-.078 0-.273 0-.273.091 0 .065.208.299.221.364.104.338.182 1.131.182 1.768 0 .338-.078.351-.754.468-.949.169-2.639.442-3.536.442-.182 0-.806-.078-.936-.091-.039.013-.065.078-.065.13 0 .533 1.079 1.079 1.365 1.079.221 0 1.17-.455 1.391-.52.845-.273 2.171-.52 2.301-.52.26 0 .26.078.26.78 0 .663 0 .741-.364.793-1.261.195-1.261 1.625-1.261 1.794 0 1.04.624 1.703 1.326 1.703.039 0 .234-.026.273-.026.13 0 .13.143.13.182 0 .559-.39 1.404-.728 1.911-.091.13-.624.754-.624.78 0 .039.039.052.065.052zm2.158-8.749c-.182 0-.234-.039-.234-.247 0-.338.052-.637.143-.663.117-.026.988.585.988.689 0 .195-.845.221-.897.221zm-1.326 5.096c-.338 0-.845-.312-.845-1.04 0-.663.416-1.196.741-1.196.26 0 .416.247.455.338.039.104.169.442.169.91 0 .208-.013.988-.52.988zm13.546 2.977c1.651 0 3.25-1.157 3.25-2.808 0-1.469-1.261-2.704-2.925-2.704-.364 0-.728.052-1.144.208-.078.026-.247.091-.325.117-.039 0-.078-.052-.078-.091 0-.221 1.144-2.002 2.08-2.665.624-.429.923-.637.923-1.014 0-.572-.845-.897-1.365-.897-.286 0-.377.039-1.183.39-.364.156-1.326.468-2.015.468-.273 0-.312 0-.312.039 0 .065.403.897 1.014.897.221 0 .403-.039.923-.468.221-.182.988-.832 1.469-.832.156 0 .247.091.247.182 0 .143-.182.416-.611 1.027-1.963 2.756-2.093 2.925-2.938 3.913-.923 1.079-1.027 1.365-1.027 1.69 0 .104.065.364.377.364.351 0 .481-.247.741-.689.234-.403 1.339-2.184 3.055-2.184 1.3 0 2.197.91 2.197 1.976 0 1.079-.91 1.872-1.352 1.872-.182 0-.26-.117-.442-.351-.364-.468-.871-.832-1.482-.832-.741 0-1.287.585-1.287 1.053 0 .65.923 1.339 2.21 1.339zm-.416-.845c-.559 0-1.118-.273-1.118-.611 0-.208.234-.455.546-.455.481 0 .793.52.793.832 0 .143-.091.234-.221.234z" fill="#eff2f4"/></g></svg>